<svg width="65" height="66" viewBox="0 0 65 66" fill="none" xmlns="http://www.w3.org/2000/svg">
<path d="M6.12267 61.6734L14.4436 53.9345C17.0625 56.3417 20.1161 58.1658 23.6043 59.4067C27.0935 60.6476 30.5406 61.268 33.9458 61.268C42.0659 61.268 48.9386 58.4529 54.5637 52.8225C60.1879 47.193 63 40.304 63 32.1554C63 24.0076 60.1989 17.1114 54.5968 11.4669C48.9956 5.82229 42.1513 3 34.0639 3C25.9773 3 19.0936 5.81696 13.4128 11.4509C7.73198 17.0857 4.89157 23.9707 4.89157 32.106C4.89157 35.7248 5.5549 39.2897 6.88158 42.8009C8.20825 46.3121 10.0214 49.3122 12.3209 51.8012L4 59.4067L6.12267 61.6734ZM33.9458 58.3346C26.5978 58.3346 20.4048 55.8235 15.367 50.8011C10.3292 45.7788 7.81025 39.5564 7.81025 32.134C7.81025 24.7116 10.3292 18.4893 15.367 13.4669C20.4048 8.44457 26.5978 5.9334 33.9458 5.9334C41.2938 5.9334 47.4867 8.44457 52.5246 13.4669C57.5624 18.4893 60.0813 24.7116 60.0813 32.134C60.0813 39.5564 57.5624 45.7788 52.5246 50.8011C47.4867 55.8235 41.2938 58.3346 33.9458 58.3346Z" fill="white"/>
<mask id="mask0_2017_420" style="mask-type:alpha" maskUnits="userSpaceOnUse" x="0" y="0" width="65" height="66">
<rect width="65" height="66" fill="#D9D9D9"/>
</mask>
<g mask="url(#mask0_2017_420)">
<path d="M23.9708 45.217V42.6191C23.9708 41.6038 24.2046 40.7071 24.6723 39.9289C25.1405 39.1507 25.8324 38.5842 26.7479 38.2295C28.7265 37.3337 30.7741 36.6618 32.8906 36.2139C35.0066 35.766 37.2142 35.542 39.5135 35.542C41.6916 35.542 43.8413 35.766 45.9626 36.2139C48.0834 36.6618 50.1889 37.3337 52.2792 38.2295C53.1302 38.6057 53.791 39.1776 54.2616 39.945C54.7317 40.7124 54.9667 41.6038 54.9667 42.6191V45.217H23.9708Z" fill="white"/>
</g>
<mask id="mask1_2017_420" style="mask-type:alpha" maskUnits="userSpaceOnUse" x="9" y="6" width="48" height="48">
<rect x="9" y="6" width="48" height="48" fill="#D9D9D9"/>
</mask>
<g mask="url(#mask1_2017_420)">
<path d="M27.9847 33.4004C28.6655 33.4004 29.3085 33.408 29.9135 33.4248C30.5362 33.4421 31.1745 33.5034 31.8275 33.6064C32.0182 33.6366 32.1753 33.7738 32.2299 33.959C32.2842 34.144 32.2271 34.344 32.0834 34.4727C31.9467 34.595 31.8054 34.7426 31.6605 34.918C31.4888 35.1258 31.313 35.3117 31.1332 35.4727C31.0366 35.559 30.9101 35.6046 30.7806 35.5996C30.3446 35.5828 29.8922 35.5622 29.4232 35.5371C28.9662 35.5126 28.4919 35.5 28.0004 35.5C26.2786 35.5 24.5727 35.6713 22.8832 36.0146C21.2127 36.3541 19.5645 36.9615 17.9379 37.8398L17.9349 37.8408C17.4881 38.0791 17.0736 38.4021 16.6918 38.8145C16.3586 39.1743 16.1996 39.5789 16.1996 40.0498V40.7998H20.5004C20.7763 40.8 21.0003 41.0238 21.0004 41.2998V42.4004C21.0001 42.6762 20.7762 42.9002 20.5004 42.9004H14.6C14.324 42.9004 14.1002 42.6763 14.1 42.4004V40.0498L14.1117 39.7207C14.1676 38.9594 14.42 38.2516 14.8627 37.6045C15.3717 36.8606 16.0714 36.3206 16.9447 35.9863C18.7755 35.1453 20.5956 34.5044 22.4047 34.0645C24.2256 33.6216 26.0862 33.4004 27.9847 33.4004ZM28.0004 19.5C29.6089 19.5001 30.9833 20.0423 32.0892 21.1299C33.1987 22.2211 33.7503 23.5985 33.7504 25.2246C33.7504 26.851 33.1991 28.2359 32.0922 29.3428C30.9868 30.4481 29.6115 30.9999 28.0004 31C26.389 31 25.013 30.4482 23.9076 29.3428C22.8007 28.2359 22.2504 26.8509 22.2504 25.2246C22.2505 23.5986 22.8012 22.2211 23.9105 21.1299C25.0165 20.0422 26.3916 19.5 28.0004 19.5ZM28.0004 21.5996C26.9618 21.5996 26.1067 21.9504 25.4037 22.6533C24.7007 23.3563 24.35 24.2113 24.35 25.25C24.35 26.2887 24.7007 27.1437 25.4037 27.8467C26.1067 28.5496 26.9618 28.9004 28.0004 28.9004C29.0387 28.9003 29.8932 28.5494 30.5961 27.8467C31.2991 27.1437 31.6498 26.2887 31.6498 25.25C31.6498 24.2113 31.2991 23.3563 30.5961 22.6533C29.8932 21.9506 29.0387 21.5997 28.0004 21.5996Z" fill="white" stroke="white" stroke-linejoin="round"/>
</g>
<path d="M32.3622 29.6541C33.937 31.218 35.8348 32 38.0556 32C40.2763 32 42.1556 31.218 43.6933 29.6541C45.2311 28.0901 46 26.187 46 23.9448C46 21.7997 45.2311 19.9393 43.6933 18.3636C42.1556 16.7879 40.2578 16 38 16C35.84 16 33.9667 16.782 32.38 18.3459C30.7933 19.9099 30 21.7946 30 24C30 26.2054 30.7874 28.0901 32.3622 29.6541Z" fill="white"/>
</svg>
